<svg width="80" height="56" viewBox="0 0 80 56" fill="none" xmlns="http://www.w3.org/2000/svg">
<g id="Group 1000002816">
<rect id="Shadow" width="80" height="56" fill="#0B0D21"/>
<rect id="Shadow_2" width="2" height="56" fill="#7E41FF"/>
<g id="Group 1000002803">
<g id="Group 1000002802">
<path id="Vector 2" d="M35.92 29.4697C37.33 29.4697 38.46 30.6107 38.46 32.0307V35.4397C38.46 36.8497 37.33 37.9997 35.92 37.9997H32.54C31.14 37.9997 30 36.8497 30 35.4397V32.0307C30 30.6107 31.14 29.4697 32.54 29.4697H35.92ZM47.4601 29.4697C48.8601 29.4697 50.0001 30.6107 50.0001 32.0307V35.4397C50.0001 36.8497 48.8601 37.9997 47.4601 37.9997H44.0801C42.6701 37.9997 41.5401 36.8497 41.5401 35.4397V32.0307C41.5401 30.6107 42.6701 29.4697 44.0801 29.4697H47.4601ZM47.4601 18C48.8601 18 50.0001 19.15 50.0001 20.561V23.97C50.0001 25.39 48.8601 26.53 47.4601 26.53H44.0801C42.6701 26.53 41.5401 25.39 41.5401 23.97V20.561C41.5401 19.15 42.6701 18 44.0801 18H47.4601Z" fill="#7E41FF"/>
<path id="Vector 1" d="M38.46 20.561C38.46 19.15 37.33 18 35.92 18H32.54C31.14 18 30 19.15 30 20.561V23.97C30 25.39 31.14 26.53 32.54 26.53H35.92C37.33 26.53 38.46 25.39 38.46 23.97V20.561Z" fill="#7E41FF"/>
</g>
</g>
</g>
</svg>
